# xmcd CD database file
#
# Track frame offsets:
#	150
#	19061
#	26106
#	51672
#	69612
#	88423
#	95180
#	122035
#	136478
#	153776
#	187540
#
# Disc length: 2857 seconds
#
# Revision: 0
# Processed by: cddbd v1.5.2PL0 Copyright (c) Steve Scherf et al.
# Submitted via: CDex 1.70beta2
#
DISCID=990b270b
DTITLE=ACID DRINKERS - BROKEN HEAD
DYEAR=2008
DGENRE=Thrash Metal
TTITLE0=ACID DRINKERS - SUPERSTITIOUS MOTHERFUCKER
TTITLE1=ACID DRINKERS - DOG ROCK
TTITLE2=ACID DRINKERS - EL PECADO
TTITLE3=ACID DRINKERS - CALISTA
TTITLE4=ACID DRINKERS - DONﾒT GO TO WHERE I SLEEP
TTITLE5=ACID DRINKERS - A RUBBER HAMMER AND A BROKEN HEAD
TTITLE6=ACID DRINKERS - THEREﾒS SO MUCH HATRED IN THE AIR
TTITLE7=ACID DRINKERS - THE WILDEST PLANET IN SPACE
TTITLE8=ACID DRINKERS - YOUTH
TTITLE9=ACID DRINKERS - RED AND GREY
TTITLE10=DATA TRACK
EXTD=YEAR: 2008
EXTT0=
EXTT1=
EXTT2=
EXTT3=
EXTT4=
EXTT5=
EXTT6=
EXTT7=
EXTT8=
EXTT9=
EXTT10=
PLAYORDER=
